<?xml version="1.0" standalone="no"?>
<!DOCTYPE svg PUBLIC "-//W3C//DTD SVG 20010904//EN"
 "http://www.w3.org/TR/2001/REC-SVG-20010904/DTD/svg10.dtd">
<svg version="1.0" xmlns="http://www.w3.org/2000/svg"
 width="840.000000pt" height="912.000000pt" viewBox="0 0 840.000000 912.000000"
 preserveAspectRatio="xMidYMid meet">

<g transform="translate(0.000000,912.000000) scale(0.100000,-0.100000)"
fill="#000000" stroke="none">
<path d="M4130 8705 c-304 -51 -556 -188 -787 -428 -150 -157 -280 -365 -369
-595 -15 -40 -31 -71 -35 -70 -4 2 -36 40 -72 84 -234 291 -525 496 -861 608
-186 62 -247 71 -486 70 -210 0 -218 -1 -335 -32 -156 -42 -349 -137 -460
-225 -264 -212 -422 -475 -496 -827 -19 -87 -22 -137 -22 -290 0 -205 10 -290
54 -460 100 -381 299 -698 614 -979 202 -180 489 -326 773 -392 124 -29 412
-37 538 -15 103 18 231 55 316 93 32 14 64 23 73 19 23 -9 52 -82 60 -151 12
-118 14 -125 38 -125 13 0 38 13 57 30 19 16 38 29 43 30 4 0 7 -34 7 -76 0
-91 20 -173 65 -271 67 -145 151 -253 404 -518 141 -148 157 -168 201 -260 78
-159 94 -237 93 -445 0 -117 -6 -210 -18 -280 -10 -63 -19 -186 -22 -310 -8
-321 26 -501 136 -725 63 -126 65 -130 330 -417 119 -130 188 -228 242 -343
54 -115 73 -193 73 -305 1 -144 -35 -244 -134 -373 -27 -37 -50 -71 -50 -77 0
-45 111 83 160 184 50 104 64 181 57 304 -9 163 -78 328 -213 509 -30 40 -120
141 -201 226 -165 171 -223 257 -281 410 -92 246 -112 543 -60 922 16 121 19
183 15 320 -5 188 -20 258 -82 391 -49 107 -85 154 -236 310 -178 185 -251
270 -314 369 -92 143 -135 270 -135 400 0 83 8 104 39 111 14 3 49 13 76 22
40 14 51 22 53 42 2 22 -6 30 -62 58 -39 20 -79 51 -99 75 -68 83 -71 72 56
199 123 124 192 217 262 357 26 50 48 91 49 91 2 0 28 -33 59 -72 118 -155
295 -305 468 -397 117 -62 205 -96 332 -126 55 -13 104 -28 110 -34 16 -16
-18 -124 -59 -193 -51 -83 -46 -92 49 -96 74 -3 77 -4 72 -25 -2 -12 -14 -76
-26 -142 -11 -66 -34 -184 -49 -261 -73 -360 -63 -587 33 -769 38 -70 172
-209 267 -276 36 -26 157 -102 270 -170 379 -229 468 -312 585 -553 121 -247
144 -432 109 -871 -22 -276 -8 -433 50 -589 31 -82 53 -120 119 -204 57 -74
57 -80 2 -222 -44 -116 -82 -189 -186 -362 -49 -81 -89 -152 -89 -157 0 -89
247 330 325 552 16 43 32 74 36 70 22 -22 101 -174 120 -231 12 -35 26 -105
33 -155 7 -60 16 -92 25 -95 11 -4 13 12 8 89 -7 121 -40 218 -120 352 l-62
102 13 75 c16 90 10 275 -13 372 -39 174 -46 211 -56 321 -8 88 -8 149 1 239
20 212 65 343 182 531 139 226 180 334 199 525 21 215 -15 454 -111 733 -78
227 -84 393 -25 618 42 155 152 392 186 399 8 1 41 -18 73 -43 88 -68 131 -56
107 32 -15 52 -14 111 3 167 23 75 25 76 109 58 102 -22 414 -21 516 2 164 37
358 115 490 198 576 361 921 1083 850 1779 -55 542 -346 1000 -772 1215 -205
104 -371 139 -617 131 -227 -7 -361 -39 -558 -132 -195 -92 -429 -276 -568
-446 l-57 -69 -46 82 c-202 359 -426 573 -743 710 -218 94 -484 129 -698 93z
m1321 -2907 c133 -225 298 -391 511 -515 43 -25 80 -48 82 -52 12 -18 -40 -99
-104 -161 -79 -77 -81 -93 -16 -111 22 -6 46 -13 53 -15 8 -2 -9 -47 -47 -126
-115 -241 -156 -412 -147 -608 7 -121 22 -192 79 -355 74 -210 104 -403 95
-614 -8 -213 -50 -341 -176 -536 -144 -223 -199 -393 -208 -650 -6 -162 4
-258 48 -454 29 -131 31 -154 27 -286 -2 -79 -7 -147 -12 -152 -11 -12 -70 61
-110 137 -19 36 -47 106 -62 155 -25 83 -27 104 -28 275 0 102 3 298 8 435 7
208 5 267 -8 350 -19 123 -54 231 -113 349 -59 118 -115 196 -199 277 -95 90
-156 133 -393 277 -260 157 -318 198 -412 291 -91 91 -142 178 -170 291 -19
73 -21 104 -17 254 5 156 10 194 56 425 29 139 55 276 58 303 4 26 10 50 14
53 4 2 30 -5 59 -15 61 -24 94 -25 111 -5 10 12 6 25 -21 72 -29 50 -34 69
-37 143 l-4 86 134 22 c213 35 377 99 546 212 104 69 240 188 302 264 25 30
48 55 51 55 4 1 26 -32 50 -71z"/>
</g>
</svg>
